<?xml version="1.0" encoding="UTF-8"?>
<svg version="1.1" xmlns="http://www.w3.org/2000/svg" width="722" height="757">
<path d="M0 0 C10.10769045 7.62538445 17.02930481 17.34264704 19.75 29.8125 C19.77964844 30.52148438 19.80929688 31.23046875 19.83984375 31.9609375 C20.13620003 38.90752869 22.84956317 42.06825239 27.75 46.8125 C28.91666667 47.97916667 30.08333333 49.14583333 31.25 50.3125 C31.7964448 50.84890138 32.3428896 51.38530275 32.90589333 51.93795872 C34.68268733 53.74407642 36.3355039 55.6070702 37.98226929 57.53172302 C41.67974884 61.78186373 45.56815843 65.80573998 49.53369141 69.80493164 C50.27770706 70.55873108 51.02172272 71.31253052 51.7882843 72.08917236 C54.22292067 74.55344792 56.66156677 77.01368757 59.1015625 79.47265625 C60.35683306 80.73778455 60.35683306 80.73778455 61.63746262 82.02847099 C66.05529807 86.47873702 70.47708898 90.92503625 74.90136719 95.36889648 C78.56225833 99.0476983 82.2144162 102.73485627 85.859375 106.42944336 C90.26979263 110.89981971 94.69454275 115.35551031 99.13016891 119.8008709 C100.81703987 121.4963242 102.49875417 123.19692397 104.17522049 124.90266609 C106.51142217 127.27750273 108.86556401 129.63299548 111.22509766 131.98461914 C111.91613083 132.69565292 112.607164 133.40668671 113.31913757 134.13926697 C116.80769238 137.84018327 116.80769238 137.84018327 121.52426147 138.83006287 C124.5261567 137.45765678 127.49157959 136.05328481 130.4375 134.5625 C158.50396158 120.98048725 191.57667047 120.38311171 220.875 130.3359375 C225.69879818 132.09205547 230.32767574 134.29789139 234.87988281 136.66503906 C238.13846577 138.37559493 238.13846577 138.37559493 241.72265148 138.58982944 C244.16966518 137.65159126 245.44727713 136.48729838 247.29695129 134.63304138 C247.98229446 133.95326736 248.66763763 133.27349335 249.37374878 132.57312012 C250.11513092 131.82252319 250.85651306 131.07192627 251.62036133 130.29858398 C252.40949417 129.51149551 253.19862701 128.72440704 254.01167297 127.91346741 C256.62577734 125.30237746 259.22896138 122.68068087 261.83203125 120.05859375 C263.64742175 118.24014512 265.46340405 116.42228711 267.279953 114.60499573 C271.09169394 110.78864664 274.8986591 106.96763327 278.70141602 103.14233398 C283.56315245 98.25183416 288.43400856 93.37052679 293.30791187 88.49215603 C297.06203491 84.73446129 300.81271988 80.97334444 304.56268883 77.21150398 C306.35669214 75.41182221 308.15115217 73.6125956 309.94608498 71.81384087 C312.46381011 69.28919359 314.97813326 66.76120771 317.49145508 64.23217773 C318.22676453 63.49575043 318.96207397 62.75932312 319.71966553 62.00057983 C323.73460611 57.95259543 327.58209904 53.81176836 331.29622936 49.48545933 C332.98601181 47.5409041 334.76986036 45.7242474 336.625 43.9375 C340.21452319 40.47674894 340.88069275 38.25719556 341.5625 33.3125 C343.83719205 19.41529383 350.35030695 8.2064862 361.75 -0.1875 C373.0196178 -6.97684161 385.27374312 -9.18648235 398.17578125 -6.46484375 C404.27314478 -4.55118582 409.57427222 -1.91742589 414.75 1.8125 C415.595625 2.369375 416.44125 2.92625 417.3125 3.5 C426.45448408 12.17316438 432.09712301 24.25789637 432.953125 36.78515625 C433.19715627 52.87088398 428.88867764 64.9613711 417.953125 76.7734375 C412.10566287 82.18545032 403.19726036 87.94448267 394.94248962 87.74447632 C383.37110857 87.85224377 377.57435493 94.51881363 369.84120178 102.33609009 C368.1238878 104.11138907 366.40730682 105.88739736 364.69140625 107.6640625 C362.89229794 109.48304796 361.09057012 111.2994459 359.28636169 113.1133728 C355.04007237 117.39558307 350.82190609 121.70368311 346.61615366 126.025576 C341.85231606 130.91755821 337.05130004 135.77234697 332.24792778 140.62546277 C324.75785139 148.19626581 317.28704336 155.78592185 309.84985352 163.40869141 C309.13025452 164.14354767 308.41065552 164.87840393 307.66925049 165.63552856 C303.75683722 169.65573148 299.98356922 173.75693638 296.33218288 178.01614952 C293.92798747 180.74578187 291.35299268 183.27299494 288.75 185.8125 C289.89525463 188.80190824 291.15488395 191.71156135 292.51953125 194.60546875 C296.11916087 202.29895027 299.34868228 209.92936876 301.625 218.125 C301.81553955 218.80393311 302.0060791 219.48286621 302.20239258 220.18237305 C305.23131898 231.71859613 306.11326641 243.16623703 306.0625 255.0625 C306.05976578 256.08163986 306.05976578 256.08163986 306.05697632 257.12136841 C306.00946973 267.65870039 305.4402904 277.59155736 302.75 287.8125 C302.57839355 288.46637695 302.40678711 289.12025391 302.22998047 289.79394531 C299.72350248 299.08964117 296.19342666 307.83225361 292.203125 316.58203125 C290.72048404 319.73307932 290.72048404 319.73307932 289.75 322.8125 C290.34949463 323.40675781 290.94898926 324.00101562 291.56665039 324.61328125 C293.82574527 326.85516107 296.08244873 329.09941531 298.33764648 331.34521484 C299.30742273 332.31001459 300.2781007 333.27390895 301.24975586 334.23681641 C302.65985927 335.63455687 304.0662727 337.03601674 305.47265625 338.4375 C306.73734741 339.69433594 306.73734741 339.69433594 308.02758789 340.9765625 C310.08968015 343.12464462 312.04674098 345.28775293 313.98849487 347.54008484 C317.42825215 351.48289973 320.9994079 355.26630089 324.65649414 359.00708008 C325.3080246 359.67642578 325.95955505 360.34577148 326.63082886 361.03540039 C332.59157995 367.14960655 338.58527877 373.23157035 344.58899784 379.30356312 C348.60814174 383.36896408 352.61582972 387.44438014 356.59838867 391.5456543 C360.47239865 395.53464739 364.37312904 399.49562555 368.29372978 403.43881798 C369.77397057 404.93674881 371.2447163 406.4441296 372.70521736 407.96131325 C383.29579251 419.09017859 383.29579251 419.09017859 397.64109802 423.42485046 C407.00635245 424.59260569 415.58009083 430.9438871 421.75 437.8125 C430.83607368 449.78557175 433.66392653 461.91888249 432.75 476.8125 C430.75690657 490.32499786 424.2573936 501.85083123 413.39453125 510.1015625 C402.63321681 517.06383093 391.30720566 518.99217073 378.75 517.8125 C372.39347945 516.3826368 366.43916362 513.97314645 360.75 510.8125 C360.75 510.1525 360.75 509.4925 360.75 508.8125 C360.17121094 508.565 359.59242188 508.3175 358.99609375 508.0625 C350.40701651 503.2824918 345.79547001 493.41062844 342.5625 484.5625 C341.75 480.8125 341.75 480.8125 341.54296875 477.65625 C340.70888333 467.4248022 337.18479412 462.66766999 329.75 455.8125 C328.07832836 454.15085338 326.41123783 452.48457788 324.75 450.8125 C324.1415625 450.2040625 323.533125 449.595625 322.90625 448.96875 C322.3596875 448.4221875 321.813125 447.875625 321.25 447.3125 C320.65445312 446.71824219 320.05890625 446.12398437 319.4453125 445.51171875 C317.99576936 444.05883565 316.55904173 442.59318559 315.125 441.125 C312.83243627 438.80030548 312.83243627 438.80030548 310.375 437 C308.19158618 435.18048848 306.57670731 433.5110124 304.76171875 431.359375 C300.07325152 425.94691721 295.00918341 420.92568265 289.9375 415.875 C288.97444087 414.90837098 288.01154919 413.9415751 287.04882812 412.97460938 C286.13939453 412.06646484 285.22996094 411.15832031 284.29296875 410.22265625 C283.46821045 409.39902588 282.64345215 408.57539551 281.79370117 407.72680664 C279.89544066 405.7664448 279.89544066 405.7664448 277.75 404.8125 C277.75 404.1525 277.75 403.4925 277.75 402.8125 C277.09 402.8125 276.43 402.8125 275.75 402.8125 C274.32226562 401.36132812 274.32226562 401.36132812 272.65625 399.34375 C268.75029514 394.75041178 264.54950678 390.53509253 260.25 386.3125 C254.84069872 380.99996619 249.65940128 375.59330055 244.75 369.8125 C244.22792969 370.05895264 243.70585937 370.30540527 243.16796875 370.55932617 C213.88966145 384.29154451 187.03781647 389.99872372 154.90136719 384.17626953 C151.52992954 383.60620121 148.1458551 383.20906811 144.75 382.8125 C144.75 382.1525 144.75 381.4925 144.75 380.8125 C143.98429688 380.75191406 143.21859375 380.69132812 142.4296875 380.62890625 C137.18476604 379.4652241 132.67674625 377.11508775 127.875 374.75 C126.90046875 374.27755859 125.9259375 373.80511719 124.921875 373.31835938 C122.52783126 372.15654403 120.13745506 370.9877793 117.75 369.8125 C114.0185683 372.85856669 110.60976791 375.85256289 107.49711609 379.53193665 C103.79661221 383.81296284 99.87338646 387.81648932 95.85864258 391.80151367 C95.10326706 392.55542892 94.34789154 393.30934418 93.56962585 394.08610535 C91.94315906 395.70879125 90.31553892 397.33032181 88.68686867 398.95079613 C86.10782808 401.51698908 83.53199805 404.08636659 80.95695496 406.65657043 C75.49494393 412.10719932 70.02900672 417.5538804 64.5625 423 C58.21489081 429.32398579 51.86891377 435.64959153 45.52713585 441.97942543 C42.99212092 444.50796866 40.45410862 447.03347671 37.91596985 449.55888367 C36.36155665 451.10966423 34.80728374 452.66058542 33.25317383 454.21166992 C32.54919464 454.91048279 31.84521545 455.60929565 31.11990356 456.32928467 C25.15545488 462.29308815 21.36236412 466.39746412 20.25 475 C17.93067313 490.01248651 12.04006954 501.49320886 -0.25 510.8125 C-10.48068276 517.66775342 -21.17463115 519.03377247 -33.25 517.8125 C-40.70388984 516.23833377 -47.093461 513.24925463 -53.25 508.8125 C-54.5184375 507.9771875 -54.5184375 507.9771875 -55.8125 507.125 C-64.60905194 498.77955329 -71.33770693 486.64957779 -71.81030273 474.42822266 C-71.82651446 458.35700046 -67.43940133 445.71841823 -56.453125 433.8515625 C-49.31613309 427.24604872 -40.57518248 423.31676235 -31.00323486 422.17666626 C-24.67263633 421.03754432 -21.49093139 418.29414762 -17.13574219 413.73583984 C-16.40410858 413.00712677 -15.67247498 412.2784137 -14.91867065 411.52761841 C-12.52264238 409.13042538 -10.16012522 406.70291395 -7.796875 404.2734375 C-6.12733522 402.58962826 -4.45585435 400.90774166 -2.78253174 399.22769165 C1.60804358 394.80850633 5.97052628 390.36255833 10.32800293 385.9107666 C14.75304046 381.40082269 19.20639485 376.9190262 23.65625 372.43359375 C30.1688799 365.85760893 36.67453469 359.27487374 43.15332031 352.66552734 C44.15563187 351.6473996 44.15563187 351.6473996 45.17819214 350.60870361 C49.01638436 346.6833394 52.69810037 342.65915229 56.28271198 338.50061226 C57.95075818 336.58152807 59.68971526 334.75792489 61.49609375 332.96875 C62.10517578 332.36289062 62.71425781 331.75703125 63.34179688 331.1328125 C63.95087891 330.53210938 64.55996094 329.93140625 65.1875 329.3125 C65.82365234 328.68085938 66.45980469 328.04921875 67.11523438 327.3984375 C68.65782806 325.86744226 70.20357314 324.33962333 71.75 322.8125 C71.47325439 322.19544189 71.19650879 321.57838379 70.91137695 320.94262695 C64.62898633 306.79450022 59.54833547 293.05673527 56.75 277.8125 C56.54938965 276.77053467 56.54938965 276.77053467 56.34472656 275.70751953 C51.19207328 247.92829463 57.67942552 219.52363897 69.19921875 194.23828125 C70.46060691 191.45178901 71.64358767 188.66301059 72.75 185.8125 C72.1725 185.25820313 71.595 184.70390625 71 184.1328125 C70.2575 183.40835938 69.515 182.68390625 68.75 181.9375 C68.0075 181.21820313 67.265 180.49890625 66.5 179.7578125 C64.75 177.8125 64.75 177.8125 64.75 175.8125 C64.1504248 175.55057861 63.55084961 175.28865723 62.93310547 175.01879883 C60.60430042 173.7319921 59.48181942 172.568862 57.8203125 170.51171875 C52.46545729 164.18727776 46.50161831 158.45849165 40.625 152.625 C39.44637945 151.45140797 38.26799238 150.2775814 37.08984375 149.10351562 C34.9257538 146.94752325 32.76032396 144.79289723 30.59326172 142.63989258 C30.10712402 142.15609131 29.62098633 141.67229004 29.12011719 141.17382812 C27.91241297 139.97387112 26.7004311 138.77822268 25.48779297 137.58325195 C22.19754903 134.25339833 18.98141775 130.85702257 15.75860596 127.46200562 C12.39917661 123.93957955 9.01342829 120.44349199 5.61833572 116.95546532 C3.05394948 114.31825065 0.50419028 111.66966327 -2.01611328 108.99023438 C-16.15038946 93.04233543 -16.15038946 93.04233543 -35.71386719 86.94458008 C-44.36389068 86.6214882 -52.11501221 80.87905372 -58.21484375 75.078125 C-68.73261673 63.36927984 -72.07235155 49.85827336 -71.7265625 34.41796875 C-70.96769137 23.12319814 -64.38205791 11.6256909 -56.296875 3.9609375 C-40.24150492 -9.611048 -17.62486707 -11.51777027 0 0 Z M-35.25 22.8125 C-31.72180324 28.80268021 -26.94213914 33.34574806 -22 38.1875 C-21.15953125 39.01894531 -20.3190625 39.85039062 -19.453125 40.70703125 C-17.38989498 42.74681547 -15.32212877 44.78176286 -13.25 46.8125 C-9.92633949 46.0882108 -9.92633949 46.0882108 -8.5625 42.625 C-6.64437437 37.6052244 -6.63203873 33.77323596 -8.75 28.8125 C-11.27645372 24.21894778 -14.48534168 21.04797325 -19.25 18.8125 C-25.76467127 17.50554434 -30.22195154 18.57835393 -35.25 22.8125 Z M372.5 25.25 C369.05317238 30.29714044 368.43789177 33.66292284 369.2578125 39.65234375 C369.89265394 42.43859231 371.05456112 44.52734325 372.75 46.8125 C376.15316954 45.33948632 378.39005372 43.42987432 381.0078125 40.8203125 C381.79800781 40.03269531 382.58820313 39.24507812 383.40234375 38.43359375 C384.21832031 37.60988281 385.03429687 36.78617188 385.875 35.9375 C386.69871094 35.12152344 387.52242187 34.30554688 388.37109375 33.46484375 C389.55251953 32.27955078 389.55251953 32.27955078 390.7578125 31.0703125 C391.47598145 30.3498877 392.19415039 29.62946289 392.93408203 28.88720703 C394.64865943 26.92828276 395.72117787 25.18943389 396.75 22.8125 C392.28167412 19.04969926 388.99256883 18.17130706 383.1484375 18.42578125 C378.36642031 19.19682311 375.68240175 21.8023981 372.5 25.25 Z M-43.25 29.8125 C-46.44386246 35.64477058 -48.01615136 39.88491238 -46.125 46.375 C-44.14369169 51.70929161 -41.16719925 54.50531869 -36.5 57.6875 C-32.14605395 59.19463517 -28.68855994 58.91398087 -24.25 57.8125 C-21.28951898 56.40868965 -21.28951898 56.40868965 -19.25 54.8125 C-20.8599864 50.93933271 -23.48044915 48.14108827 -26.3125 45.125 C-26.798396 44.60260742 -27.28429199 44.08021484 -27.78491211 43.54199219 C-34.28872 36.44143303 -34.28872 36.44143303 -41.25 29.8125 C-41.91 29.8125 -42.57 29.8125 -43.25 29.8125 Z M401.04174805 31.27783203 C400.37183838 31.95185059 399.70192871 32.62586914 399.01171875 33.3203125 C397.90473633 34.43019531 397.90473633 34.43019531 396.77539062 35.5625 C395.61813477 36.738125 395.61813477 36.738125 394.4375 37.9375 C393.67759766 38.69804687 392.91769531 39.45859375 392.13476562 40.2421875 C384.71043152 46.67267959 384.71043152 46.67267959 380.75 54.8125 C385.80308272 58.02058794 389.66044403 59.46462514 395.64453125 58.4140625 C400.44418643 57.04273245 403.47515243 54.61421823 406.0625 50.4375 C409.18266063 43.73493272 408.76939644 39.7022055 406.75 32.8125 C406.09 32.8125 405.43 32.8125 404.75 32.8125 C404.75 31.8225 404.75 30.8325 404.75 29.8125 C402.62789931 29.59547427 402.62789931 29.59547427 401.04174805 31.27783203 Z M119.75 157.8125 C114.39571117 163.99418662 109.48415107 170.52033707 105.75 177.8125 C106.08 178.4725 106.41 179.1325 106.75 179.8125 C107.27207031 179.31621094 107.79414063 178.81992187 108.33203125 178.30859375 C126.50815617 161.5330809 151.74824332 152.04838324 176.5 152.54296875 C197.65739303 153.51732238 220.13489136 167.27885419 234.40869141 182.26904297 C241.74310525 190.70882534 245.44237371 201.25602008 248.24609375 211.91015625 C248.70603265 213.64651472 249.21013478 215.37102104 249.71875 217.09375 C255.75825892 240.13335811 252.80289166 271.14570938 240.8984375 292.06640625 C238.98333154 294.80935682 236.97273245 297.31398408 234.75 299.8125 C234.09515625 300.56402344 233.4403125 301.31554687 232.765625 302.08984375 C224.80279624 310.60647827 214.93568356 317.27208965 205.06054688 323.37915039 C197.08812034 328.31461563 190.08639384 333.44511604 187.1875 342.7578125 C184.93880124 353.31866558 188.8980923 362.14830406 194.5 371 C195.57269675 372.61129869 196.65218859 374.21820646 197.75 375.8125 C199.22903215 371.37540354 198.71887145 366.86515237 198.53515625 362.23632812 C198.44075393 357.34886266 198.81611951 353.92824732 201.75 349.8125 C208.59041308 344.14164031 217.82175784 344.48056997 226.33105469 343.67895508 C244.00776616 342.38163318 244.00776616 342.38163318 258.62304688 333.87524414 C262.60430978 328.14235351 261.85010821 321.71746849 261.4921875 315.01171875 C261.81647883 312.24541539 262.59761817 311.51414775 264.75 309.8125 C266.39605826 308.77892853 268.05963442 307.77189668 269.75 306.8125 C269.440625 306.07 269.13125 305.3275 268.8125 304.5625 C267.9405075 302.30557824 267.27332993 300.1674847 266.75 297.8125 C267.554375 297.35875 268.35875 296.905 269.1875 296.4375 C271.83856572 295.06524335 271.83856572 295.06524335 272.75 292.8125 C272.85297783 290.87594474 272.9330853 288.93813651 273 287 C273.32248143 283.02589055 273.47640157 281.21434769 275.75 277.875 C278.9841469 275.65152401 282.27520165 273.72470688 285.76171875 271.92578125 C287.89276494 270.85074689 287.89276494 270.85074689 289.75 268.8125 C289.52551034 263.08801379 287.73308285 259.52769547 284.75 254.8125 C284.09 254.8125 283.43 254.8125 282.75 254.8125 C282.65589844 254.26078125 282.56179688 253.7090625 282.46484375 253.140625 C281.5583856 250.18844435 280.08656482 248.08528656 278.3125 245.5625 C277.38630859 244.22445312 277.38630859 244.22445312 276.44140625 242.859375 C275.88324219 242.18390625 275.32507813 241.5084375 274.75 240.8125 C274.09 240.8125 273.43 240.8125 272.75 240.8125 C272.5025 240.1525 272.255 239.4925 272 238.8125 C270.79334414 235.67524819 270.79334414 235.67524819 268.67578125 232.5546875 C265.56998535 226.37696171 266.44724543 219.67121023 266.6875 212.9375 C266.98364339 203.94711696 267.03137049 196.26473344 263.75 187.8125 C263.44578125 186.89597656 263.1415625 185.97945312 262.828125 185.03515625 C254.43252126 163.1353031 236.66240941 148.00932848 215.67675781 138.63330078 C182.8057448 124.63021592 144.12832288 131.52870656 119.75 157.8125 Z M145.85546875 191.109375 C138.78600611 197.76548075 133.94565341 205.65162688 130.75 214.8125 C131.04519768 217.5461432 131.04519768 217.5461432 131.75 219.8125 C134.79913228 220.82361093 134.79913228 220.82361093 137.75 219.8125 C138.89102363 217.61867621 139.95697986 215.4269088 141 213.1875 C146.37176127 202.17649813 153.20628302 194.79932789 165.11328125 190.63671875 C176.67632126 188.01609422 188.0671767 189.10524636 198.2109375 195.3203125 C206.33987395 201.12669568 210.56417197 208.7889961 214.37890625 217.84375 C215.62934469 220.04474406 215.62934469 220.04474406 218.27734375 220.71875 C219.09332031 220.7496875 219.90929687 220.780625 220.75 220.8125 C221.74 219.8225 221.74 219.8225 222.75 218.8125 C222.14461193 209.4357114 215.67868962 199.06406768 208.75 192.8125 C189.61795565 177.44789589 165.76677428 175.30931069 145.85546875 191.109375 Z M173.75 197.8125 C173.09 198.4725 172.43 199.1325 171.75 199.8125 C172.07041397 202.41530568 172.07041397 202.41530568 172.75 204.8125 C175.14719432 205.49208603 175.14719432 205.49208603 177.75 205.8125 C178.41 205.1525 179.07 204.4925 179.75 203.8125 C179.42958603 201.20969432 179.42958603 201.20969432 178.75 198.8125 C176.35280568 198.13291397 176.35280568 198.13291397 173.75 197.8125 Z M188.0625 203.0625 C186.5625 204.69791667 186.5625 204.69791667 186.75 206.6875 C188.16286408 209.68983617 190.3814087 211.49774032 192.75 213.8125 C198.6404349 221.22463059 199.69296851 227.30694384 198.75 236.8125 C196.76733269 243.25839147 193.26013015 247.8667787 188.203125 252.2421875 C186.47031175 254.11474376 185.96881693 255.27621284 185.75 257.8125 C186.41 258.8025 187.07 259.7925 187.75 260.8125 C192.64550676 260.08723974 195.4874327 257.38722522 198.51953125 253.60546875 C204.94715814 244.79623695 208.73929712 235.8360965 207.75 224.8125 C205.58238681 215.12199395 200.10235545 207.28473288 191.75 201.8125 C189.6678462 201.61409082 189.6678462 201.61409082 188.0625 203.0625 Z M152.75 208.8125 C146.83047698 216.21190377 145.10162835 224.10535007 145.33203125 233.453125 C146.16633472 240.1587417 148.32348257 246.46978694 153.23828125 251.21484375 C154.06714844 251.74207031 154.89601563 252.26929688 155.75 252.8125 C157.235 252.3175 157.235 252.3175 158.75 251.8125 C159.72449531 250.04560293 159.72449531 250.04560293 159.75 247.8125 C158.82114009 245.30352656 158.82114009 245.30352656 157.375 242.8125 C153.63698257 235.96294852 152.65371703 230.05655903 154.8125 222.375 C156.38101028 217.92709888 158.89934459 215.01947623 162.2265625 211.734375 C164.07166606 209.4067059 164.54756962 207.76219976 164.75 204.8125 C164.09 204.1525 163.43 203.4925 162.75 202.8125 C158.13617781 202.8125 155.91294066 205.66403504 152.75 208.8125 Z M130.75 227.8125 C130.09 228.4725 129.43 229.1325 128.75 229.8125 C129.07326553 233.40929066 129.07326553 233.40929066 129.75 236.8125 C131.58700789 237.58492269 131.58700789 237.58492269 133.75 237.8125 C135.70625978 236.85701019 135.70625978 236.85701019 136.75 234.8125 C136.51716851 231.66328091 136.51716851 231.66328091 135.75 228.8125 C133.35280568 228.13291397 133.35280568 228.13291397 130.75 227.8125 Z M218.75 227.8125 C216.43436913 229.69750271 216.43436913 229.69750271 216.5 232.8125 C216.43436913 235.92749729 216.43436913 235.92749729 218.75 237.8125 C220.7980428 237.7174261 220.7980428 237.7174261 222.75 236.8125 C225.08391203 234.03135944 225.08391203 234.03135944 224.375 231.125 C224.16875 230.361875 223.9625 229.59875 223.75 228.8125 C221.35280568 228.13291397 221.35280568 228.13291397 218.75 227.8125 Z M133.75 243.8125 C133.09 244.4725 132.43 245.1325 131.75 245.8125 C132.79873961 255.7263666 140.23916254 262.92161366 146.75 269.8125 C147.71444439 270.86386714 148.67660648 271.91733152 149.63671875 272.97265625 C152.32893763 275.93106503 155.02418427 278.88493098 157.75 281.8125 C158.46027344 282.59367187 159.17054688 283.37484375 159.90234375 284.1796875 C160.51207031 284.71851563 161.12179687 285.25734375 161.75 285.8125 C164.45705512 285.67224801 164.45705512 285.67224801 166.75 284.8125 C167.53282648 283.02050528 167.53282648 283.02050528 167.75 280.8125 C166.53469266 278.52502627 166.53469266 278.52502627 164.75 276.8125 C164.09 276.8125 163.43 276.8125 162.75 276.8125 C162.35361328 275.92304688 162.35361328 275.92304688 161.94921875 275.015625 C160.70629575 272.73220946 159.44598354 271.33823277 157.5625 269.5625 C150.24091455 262.42319468 143.93637555 254.81759237 139.125 245.75 C138.67125 245.110625 138.2175 244.47125 137.75 243.8125 C136.43 243.8125 135.11 243.8125 133.75 243.8125 Z M215.75 243.8125 C215.47027344 244.28558594 215.19054687 244.75867188 214.90234375 245.24609375 C209.92576658 253.4550458 204.00739376 260.66188766 197.5625 267.75 C197.05130615 268.31807373 196.5401123 268.88614746 196.01342773 269.47143555 C193.47838451 272.2177669 191.28414926 274.47137892 187.75 275.8125 C186.574375 274.575 186.574375 274.575 185.375 273.3125 C183.11278736 270.58261494 183.11278736 270.58261494 180.75 270.8125 C180.523125 270.173125 180.29625 269.53375 180.0625 268.875 C178.89757132 266.57466661 178.89757132 266.57466661 176.25 265.9375 C175.0125 265.875625 175.0125 265.875625 173.75 265.8125 C171.49416219 267.60029433 171.49416219 267.60029433 171.734375 270.01171875 C173.225445 274.12363102 175.91608978 276.59844916 179 279.625 C179.57363281 280.22248047 180.14726562 280.81996094 180.73828125 281.43554688 C181.58712891 282.28149414 181.58712891 282.28149414 182.453125 283.14453125 C182.96520508 283.65733643 183.47728516 284.1701416 184.00488281 284.69848633 C186.46841375 286.27110687 187.87575927 286.27795419 190.75 285.8125 C193.15353159 284.14651069 193.15353159 284.14651069 195.3671875 281.7890625 C196.22183594 280.93183594 197.07648438 280.07460938 197.95703125 279.19140625 C198.83746094 278.28261719 199.71789062 277.37382812 200.625 276.4375 C201.49769531 275.56738281 202.37039063 274.69726562 203.26953125 273.80078125 C215.14980687 262.0254432 215.14980687 262.0254432 220.9375 246.9375 C220.875625 246.23625 220.81375 245.535 220.75 244.8125 C219.1 244.4825 217.45 244.1525 215.75 243.8125 Z M164.75 253.8125 C163.76 254.4725 162.77 255.1325 161.75 255.8125 C161.30538917 258.7024704 161.36248766 260.20063841 162.9375 262.6875 C164.77996899 264.09137164 164.77996899 264.09137164 167.4375 263.5 C168.200625 263.273125 168.96375 263.04625 169.75 262.8125 C169.56870185 259.37456661 169.56870185 259.37456661 168.75 255.8125 C166.81402968 254.29955712 166.81402968 254.29955712 164.75 253.8125 Z M155.22631836 296.84130859 C154.7391333 297.49180176 154.25194824 298.14229492 153.75 298.8125 C154.41 300.1325 155.07 301.4525 155.75 302.8125 C161.57071622 302.83714638 167.39140234 302.8553343 173.2121582 302.86743164 C175.19393441 302.87247267 177.17570689 302.87930538 179.1574707 302.88793945 C181.99952109 302.90001515 184.84152247 302.90573045 187.68359375 302.91015625 C189.02108925 302.91789818 189.02108925 302.91789818 190.38560486 302.92579651 C192.50740601 302.92599177 194.6291078 302.8746003 196.75 302.8125 C198.01472065 301.75820314 198.01472065 301.75820314 198 299.375 C197.9175 298.529375 197.835 297.68375 197.75 296.8125 C193.96456909 294.28887939 190.89317968 294.48906602 186.50390625 294.4765625 C185.69638412 294.4699057 184.888862 294.4632489 184.05686951 294.45639038 C182.34970374 294.44626984 180.64249847 294.44157318 178.93530273 294.44189453 C176.32534547 294.43752152 173.71707989 294.40119873 171.10742188 294.36328125 C169.44792245 294.35741287 167.78841499 294.35344362 166.12890625 294.3515625 C165.34963272 294.33719147 164.57035919 294.32282043 163.76747131 294.30801392 C160.07463397 294.33910796 158.1511265 294.49003108 155.22631836 296.84130859 Z M154.75 309.8125 C154.4999227 312.27059998 154.4999227 312.27059998 154.75 314.8125 C157.38185269 317.44435269 159.28868869 317.06121862 162.87145996 317.09039307 C163.70794067 317.0863446 164.54442139 317.08229614 165.40625 317.078125 C166.69335876 317.08099518 166.69335876 317.08099518 168.00646973 317.08392334 C169.82218722 317.08528544 171.63791445 317.08158728 173.45361328 317.07324219 C176.2388285 317.06254291 179.02339868 317.07313653 181.80859375 317.0859375 C183.57031393 317.08461591 185.33203371 317.08205353 187.09375 317.078125 C188.34847107 317.08419769 188.34847107 317.08419769 189.62854004 317.09039307 C194.16472931 317.25278566 194.16472931 317.25278566 197.75 314.8125 C198.0000773 312.27059998 198.0000773 312.27059998 197.75 309.8125 C195.82742825 307.88992825 192.96914892 308.68341576 190.41125488 308.67355347 C189.07846497 308.67658981 189.07846497 308.67658981 187.71875 308.6796875 C186.35937317 308.67825241 186.35937317 308.67825241 184.97253418 308.67678833 C183.05248953 308.67610647 181.13244259 308.67796118 179.21240234 308.68212891 C176.26264296 308.68747708 173.31303586 308.68218412 170.36328125 308.67578125 C168.50260383 308.67644203 166.6419265 308.67772319 164.78125 308.6796875 C163.89272339 308.67766327 163.00419678 308.67563904 162.08874512 308.67355347 C158.10171142 308.286672 158.10171142 308.286672 154.75 309.8125 Z M167.75 322.8125 C168.3789388 326.69507222 168.3789388 326.69507222 170.375 328.5625 C173.72963578 330.32809778 176.00822943 330.27201568 179.75 329.8125 C182.71929149 328.15544424 182.71929149 328.15544424 184.75 325.8125 C184.75 324.8225 184.75 323.8325 184.75 322.8125 C179.14 322.8125 173.53 322.8125 167.75 322.8125 Z M-42.8359375 457.6484375 C-45.40592778 461.52570607 -47.25 465.08191027 -47.25 469.8125 C-46.27722406 473.63226685 -45.01350224 477.28549553 -43.25 480.8125 C-40.20100103 479.45033245 -38.10205494 477.91178444 -35.75390625 475.546875 C-34.79194336 474.58201172 -34.79194336 474.58201172 -33.81054688 473.59765625 C-33.15119141 472.92605469 -32.49183594 472.25445313 -31.8125 471.5625 C-31.15701172 470.90636719 -30.50152344 470.25023437 -29.82617188 469.57421875 C-22.87053452 463.48152262 -22.87053452 463.48152262 -19.25 455.8125 C-27.59270669 451.06943833 -35.87263499 449.58747154 -42.8359375 457.6484375 Z M380.75 455.8125 C382.3599864 459.68566729 384.98044915 462.48391173 387.8125 465.5 C388.54134399 466.28358887 388.54134399 466.28358887 389.28491211 467.08300781 C395.78872 474.18356697 395.78872 474.18356697 402.75 480.8125 C403.41 480.8125 404.07 480.8125 404.75 480.8125 C407.94386246 474.98022942 409.51615136 470.74008762 407.625 464.25 C405.62544609 458.86658563 402.68376281 456.0056728 397.8125 453 C391.00437662 450.36011543 386.7489997 452.40190119 380.75 455.8125 Z M-17.75 468.046875 C-18.636875 468.93117188 -19.52375 469.81546875 -20.4375 470.7265625 C-21.365625 471.66242188 -22.29375 472.59828125 -23.25 473.5625 C-24.178125 474.48289062 -25.10625 475.40328125 -26.0625 476.3515625 C-27.3928125 477.68574219 -27.3928125 477.68574219 -28.75 479.046875 C-29.97203125 480.27229004 -29.97203125 480.27229004 -31.21875 481.52246094 C-33.04206083 483.57806858 -34.18879426 485.29934564 -35.25 487.8125 C-30.78167412 491.57530074 -27.49256883 492.45369294 -21.6484375 492.19921875 C-16.86642031 491.42817689 -14.18240175 488.8226019 -11 485.375 C-7.55557874 480.33138316 -6.9260851 476.95937529 -7.765625 470.97265625 C-8.40154539 468.13665644 -9.42808365 466.07167627 -11.25 463.8125 C-14.40775712 463.8125 -15.56037398 465.86331203 -17.75 468.046875 Z M372.75 463.8125 C369.53970309 468.86906209 368.11008709 472.71960602 369.140625 478.70703125 C370.73262507 484.2075956 374.1956764 487.57653323 378.75 490.8125 C382.45070696 492.66285348 386.71155254 492.2879747 390.75 491.8125 C393.16534564 490.72796245 394.7018276 489.53727676 396.75 487.8125 C393.22640421 481.86282186 388.51646168 477.28259711 383.625 472.4375 C382.80128906 471.60605469 381.97757813 470.77460937 381.12890625 469.91796875 C380.34128906 469.13292969 379.55367187 468.34789062 378.7421875 467.5390625 C378.02401855 466.82314941 377.30584961 466.10723633 376.56591797 465.36962891 C374.89564333 463.59551912 374.89564333 463.59551912 372.75 463.8125 Z " fill="#EC3238" transform="translate(180.25,123.1875)"/>
<path d="M0 0 C-0.33 0.66 -0.66 1.32 -1 2 C-3.31261517 2.61547861 -5.59808749 3.13477974 -7.9375 3.625 C-34.55878957 9.81053493 -57.62204422 26.27902122 -75 47 C-75.80824219 47.93714844 -76.61648437 48.87429688 -77.44921875 49.83984375 C-101.3540714 78.99851017 -110.79126536 117.6118605 -107.78173828 154.68896484 C-107.18627283 159.86815379 -106.21240336 164.93201078 -105 170 C-104.75056641 171.04776611 -104.75056641 171.04776611 -104.49609375 172.11669922 C-99.09593835 193.92232671 -88.69529972 214.01037483 -74 231 C-73.32710937 231.80566406 -72.65421875 232.61132812 -71.9609375 233.44140625 C-51.01751213 257.77385864 -20.6480739 274.07860241 11.29296875 277.75390625 C25.49615909 278.69679454 39.13139675 278.34611753 53 275 C53.69013184 274.83371094 54.38026367 274.66742187 55.09130859 274.49609375 C85.59416257 266.86508094 112.82909128 249.87889018 129.9375 223.125 C135.18238097 214.24739409 139.80779858 205.01781656 144.52490234 195.85302734 C146.73731251 191.5739434 148.990501 187.31685961 151.25 183.0625 C151.632771 182.34094727 152.01554199 181.61939453 152.40991211 180.87597656 C153.27261781 179.25030226 154.13619385 177.62508985 155 176 C159.61740006 189.85220017 149.54439991 211.9176108 143.57983398 224.22753906 C140.00497938 231.30532551 135.83780499 237.70492275 131 244 C130.31550781 244.90621094 129.63101562 245.81242188 128.92578125 246.74609375 C104.53652243 277.80746034 68.69883444 298.87505851 29.56054688 304.60302734 C23.19483379 305.31275372 16.83662951 305.39217221 10.4375 305.375 C9.7405603 305.37512085 9.04362061 305.3752417 8.32556152 305.37536621 C-3.48469422 305.34633179 -14.60363192 304.19973842 -26 301 C-27.05832031 300.72285156 -28.11664063 300.44570313 -29.20703125 300.16015625 C-41.69232591 296.45385127 -56.71173306 290.06663603 -67 282 C-67 281.34 -67 280.68 -67 280 C-67.69996094 279.78085937 -68.39992188 279.56171875 -69.12109375 279.3359375 C-72.69698087 277.67657061 -75.25029556 275.3200115 -78.0625 272.625 C-78.91122681 271.8220752 -78.91122681 271.8220752 -79.77709961 271.00292969 C-80.95140719 269.88696975 -82.12204359 268.76713456 -83.2890625 267.64355469 C-84.87881854 266.1164089 -86.4845323 264.60813036 -88.09375 263.1015625 C-107.77803809 244.37991788 -121.83322941 220.19733106 -129.375 194.1875 C-129.61371826 193.36491699 -129.85243652 192.54233398 -130.09838867 191.69482422 C-133.49001788 179.31323102 -134.37860775 167.08331519 -134.3125 154.3125 C-134.30926727 153.18723907 -134.30926727 153.18723907 -134.30596924 152.03924561 C-134.25413744 140.78994819 -133.84149792 129.93101601 -131 119 C-130.80664062 118.23187988 -130.61328125 117.46375977 -130.4140625 116.67236328 C-123.58562955 90.23852986 -111.5158824 66.88021347 -94 46 C-93.278125 45.13632812 -92.55625 44.27265625 -91.8125 43.3828125 C-87.56069381 38.45005297 -83.03523012 34.12124446 -78 30 C-76.99195313 29.154375 -75.98390625 28.30875 -74.9453125 27.4375 C-53.33499305 9.62159795 -28.2049774 -0.31223222 0 0 Z " fill="#605F61" transform="translate(134,452)"/>
<path d="M0 0 C0.66354492 0.16097168 1.32708984 0.32194336 2.01074219 0.48779297 C40.5200469 9.92030737 74.16349339 35.07861095 95.20703125 68.45703125 C105.81149975 86.19873284 112.27874521 105.26392472 113 126 C109.69486146 123.26486614 108.1544399 119.61773714 106.33984375 115.83203125 C105.62055349 114.36518005 104.90114836 112.89838516 104.18164062 111.43164062 C103.06912298 109.14535028 101.95938135 106.85776481 100.8527832 104.56860352 C96.8347254 96.27845707 92.67891446 88.16875637 87.8046875 80.34375 C87.41115585 79.71076492 87.01762421 79.07777985 86.61216736 78.4256134 C68.42202413 49.88477415 39.45293181 33.92739521 7.06542969 26.45776367 C-26.01544232 19.1860667 -58.40470256 26.97060228 -86.875 44.5 C-92.18978565 48.01678812 -97.15125821 51.86796514 -102 56 C-102.94746094 56.80050781 -103.89492187 57.60101563 -104.87109375 58.42578125 C-130.72544566 81.11978325 -148.38023139 115.52735337 -151 150 C-151.65906154 164.86360649 -151.47131425 179.48949642 -148 194 C-147.75056641 195.04776611 -147.75056641 195.04776611 -147.49609375 196.11669922 C-142.53577756 216.14627229 -133.36341246 236.19988086 -120 252 C-119.08187345 253.11445335 -118.16391874 254.22904828 -117.24609375 255.34375 C-99.27633278 276.95350959 -75.34685275 293.44307336 -47.5 299.25 C-45.7675 299.62125 -45.7675 299.62125 -44 300 C-43.67 300.66 -43.34 301.32 -43 302 C-73.72328012 300.98982412 -102.40485624 291.24105417 -124.2109375 268.73046875 C-126.75947589 265.8370114 -126.75947589 265.8370114 -130 265 C-131.02550687 263.34890538 -132.02154337 261.67940478 -133 260 C-134.48828394 258.34513749 -136.01253387 256.72223637 -137.5625 255.125 C-143.57282536 248.6072527 -148.32378548 241.51254262 -153 234 C-153.70125 232.88882813 -154.4025 231.77765625 -155.125 230.6328125 C-163.95059517 215.98094551 -169.92378942 199.57737967 -174 183 C-174.3196875 181.72511719 -174.639375 180.45023438 -174.96875 179.13671875 C-179.38877939 159.03429749 -179.33246264 133.87554257 -174 114 C-173.80664062 113.236875 -173.61328125 112.47375 -173.4140625 111.6875 C-166.35197685 84.13664732 -152.33125117 61.64997218 -133 41 C-132.54028809 40.50097168 -132.08057617 40.00194336 -131.60693359 39.48779297 C-114.61592692 21.16504349 -93.02391104 7.91193714 -69 1 C-68.28134766 0.78972168 -67.56269531 0.57944336 -66.82226562 0.36279297 C-46.07798261 -5.41832562 -20.8061718 -5.40960467 0 0 Z " fill="#605F61" transform="translate(177,3)"/>
<path d="M0 0 C32.0438378 3.51380873 59.52187313 26.83153837 79.37890625 51 C85.88581006 59.32848804 90.72766979 68.364994 95 78 C95.33628418 78.74314453 95.67256836 79.48628906 96.01904297 80.25195312 C114.36557998 121.30545351 114.81057607 166.44681475 99.06884766 208.30566406 C83.71748158 247.00316886 53.65147823 274.59699279 16 291 C-11.00404964 302.66166786 -45.87676432 303.99737964 -74 296 C-74.65097656 295.82339844 -75.30195312 295.64679688 -75.97265625 295.46484375 C-92.74386845 290.81573975 -108.45458144 282.88429019 -122 272 C-122.58620117 271.53190918 -123.17240234 271.06381836 -123.77636719 270.58154297 C-151.93815725 247.85301785 -173.76576716 216.33765488 -179 180 C-179.11196073 177.32189925 -179.04625299 174.68267314 -179 172 C-175.86667504 174.64344889 -174.52226791 177.76017644 -172.8125 181.44140625 C-172.19615393 182.75223891 -171.57935559 184.06285898 -170.9621582 185.37329102 C-170.64219879 186.05771271 -170.32223938 186.7421344 -169.99258423 187.44729614 C-152.60424083 224.50197621 -131.05500648 251.18852269 -91.50048828 265.93164062 C-59.64851549 276.97050153 -25.86595751 277.41359286 4.92578125 262.703125 C18.53615904 255.91933607 29.92553272 247.43301602 41 237 C41.66386719 236.40058594 42.32773437 235.80117188 43.01171875 235.18359375 C66.68032789 212.95526508 82.6665701 176.129611 84.14233398 143.890625 C85.23713975 103.9984657 75.16283704 67.94533036 47.32128906 38.48071289 C46.33118304 37.44773202 45.33845525 36.41725592 44.34277344 35.38964844 C43.17566247 34.18179469 42.02747961 32.95570688 40.8828125 31.7265625 C31.27212269 21.63733212 19.26798936 14.44665404 7.57006836 7.05249023 C6.59303955 6.42802002 5.61601074 5.8035498 4.609375 5.16015625 C3.72217773 4.59949463 2.83498047 4.03883301 1.92089844 3.46118164 C1.28700195 2.9789917 0.65310547 2.49680176 0 2 C0 1.34 0 0.68 0 0 Z " fill="#605F61" transform="translate(612,457)"/>
<path d="M0 0 C2.05775652 0.01069469 4.11463345 0.00005212 6.17236328 -0.01269531 C44.13017051 -0.05465456 78.82769452 15.77239605 105.81542969 41.93994141 C106.97402966 43.05168774 108.16366614 44.13095929 109.35986328 45.20214844 C116.53921533 51.81899455 121.81051264 60.17987943 127.19189453 68.26074219 C128.20316406 69.77861328 128.20316406 69.77861328 129.23486328 71.32714844 C137.8232088 85.14318253 143.40838297 101.48511209 147.19189453 117.26074219 C147.43746094 118.27563721 147.43746094 118.27563721 147.68798828 119.31103516 C152.53850561 140.56211366 152.42874408 166.10716882 147.19189453 187.26074219 C147.02560547 187.97617188 146.85931641 188.69160156 146.68798828 189.42871094 C143.82229171 201.59200081 139.3689569 212.90976027 134.19189453 224.26074219 C133.89524902 224.92122559 133.59860352 225.58170898 133.29296875 226.26220703 C127.38072646 239.29885322 119.00558714 249.93841308 109.19189453 260.26074219 C108.68529297 260.79989258 108.17869141 261.33904297 107.65673828 261.89453125 C89.45390324 281.16242579 66.97704467 297.02438064 40.19189453 300.26074219 C40.19189453 299.60074219 40.19189453 298.94074219 40.19189453 298.26074219 C42.19736791 296.7866664 44.19782087 295.44111073 46.29736328 294.11230469 C47.60549302 293.26233205 48.91342872 292.41206071 50.22119141 291.56152344 C52.27575602 290.23663763 54.33258581 288.91559403 56.39379883 287.60107422 C66.25176024 281.29497606 74.8248706 274.43915585 83.19189453 266.26074219 C84.58766383 264.94817409 85.98348019 263.63565604 87.37939453 262.32324219 C96.41134711 253.10114324 103.13721272 242.57917891 109.19189453 231.26074219 C109.64048828 230.47957031 110.08908203 229.69839844 110.55126953 228.89355469 C125.6945467 201.2619905 128.70212431 165.54345407 121.19189453 135.26074219 C121.02028809 134.55739746 120.84868164 133.85405273 120.671875 133.12939453 C114.06335718 106.89021254 100.68863319 83.89471251 82.19189453 64.26074219 C81.59248047 63.596875 80.99306641 62.93300781 80.37548828 62.24902344 C58.75535357 39.22801607 26.85726368 26.94885082 -4.28955078 25.90917969 C-34.93658889 25.56402299 -67.13355792 36.90186737 -90.80810547 56.26074219 C-91.77748047 57.04964844 -92.74685547 57.83855469 -93.74560547 58.65136719 C-112.17367747 74.51998474 -122.56035131 96.96669696 -132.61987305 118.63818359 C-133.13831787 119.74597168 -133.6567627 120.85375977 -134.19091797 121.99511719 C-134.64869629 122.98737305 -135.10647461 123.97962891 -135.578125 125.00195312 C-136.80810547 127.26074219 -136.80810547 127.26074219 -138.80810547 128.26074219 C-139.63878278 97.69873949 -121.9772282 69.26696941 -101.94873047 47.59277344 C-100.55516708 46.0746031 -99.18864178 44.53101396 -97.85498047 42.95996094 C-74.20340871 15.12609906 -36.0261918 -0.22180464 0 0 Z " fill="#605F61" transform="translate(571.80810546875,-0.2607421875)"/>
<path d="M0 0 C0 3 0 3 -1.4375 4.5 C-1.953125 4.995 -2.46875 5.49 -3 6 C-3.33 6.99 -3.66 7.98 -4 9 C-4.99 8.67 -5.98 8.34 -7 8 C-6.02133662 6.85373678 -5.04205413 5.70800212 -4.0625 4.5625 C-3.51722656 3.92441406 -2.97195312 3.28632812 -2.41015625 2.62890625 C-1.63204305 1.73008851 -0.84063472 0.84063472 0 0 Z " fill="#DE3035" transform="translate(164,535)"/>
</svg>
